<svg xmlns="http://www.w3.org/2000/svg" viewBox="0 0 600 172" width="600" height="172"><defs><style>
      :root {
        --bg: #0d1117; --bg-card: #161b22; --fg: #e6edf3;
        --grid: #30363d; --grid-subtle: #21262d; --muted: #8b949e;
        --cpu-stroke: #58a6ff; --cpu-fill: rgba(88,166,255,0.25);
        --mem-stroke: #bc8cff; --mem-fill: rgba(188,140,255,0.25);
        --green: #3fb950; --yellow: #d29922; --red: #f85149;
        --bar-fill: #58a6ff; --bar-bg: #21262d;
        --accent-blue: #58a6ff; --accent-purple: #bc8cff;
        --accent-cyan: #39d2c0; --accent-green: #3fb950;
        --group-band: rgba(255,255,255,0.02);
      }
      @media (prefers-color-scheme: light) {
        :root {
          --bg: #ffffff; --bg-card: #f6f8fa; --fg: #24292f;
          --grid: #d0d7de; --grid-subtle: #eaeef2; --muted: #656d76;
          --cpu-stroke: #0969da; --cpu-fill: rgba(9,105,218,0.25);
          --mem-stroke: #8250df; --mem-fill: rgba(130,80,223,0.25);
          --green: #1a7f37; --yellow: #9a6700; --red: #cf222e;
          --bar-fill: #0969da; --bar-bg: #eaeef2;
          --accent-blue: #0969da; --accent-purple: #8250df;
          --accent-cyan: #0598bc; --accent-green: #1a7f37;
          --group-band: rgba(0,0,0,0.03);
        }
      }
      text { font-family: ui-monospace, SFMono-Regular, "SF Mono", Menlo, Consolas, "Liberation Mono", monospace; }
    </style><linearGradient id="grad_memstroke" x1="0" y1="0" x2="0" y2="1"><stop offset="0%" stop-color="var(--mem-stroke)" stop-opacity="0.3"/><stop offset="100%" stop-color="var(--mem-stroke)" stop-opacity="0.02"/></linearGradient></defs><rect width="600" height="172" rx="6" fill="var(--bg-card)"/><line x1="52" y1="136.0" x2="588" y2="136.0" stroke="var(--grid-subtle)" stroke-width="0.5"/><text x="46" y="139.0" fill="var(--muted)" font-size="9" text-anchor="end">0.0 GB</text><line x1="52" y1="109.0" x2="588" y2="109.0" stroke="var(--grid-subtle)" stroke-width="0.5"/><text x="46" y="112.0" fill="var(--muted)" font-size="9" text-anchor="end">1.8 GB</text><line x1="52" y1="82.0" x2="588" y2="82.0" stroke="var(--grid-subtle)" stroke-width="0.5"/><text x="46" y="85.0" fill="var(--muted)" font-size="9" text-anchor="end">3.5 GB</text><line x1="52" y1="55.0" x2="588" y2="55.0" stroke="var(--grid-subtle)" stroke-width="0.5"/><text x="46" y="58.0" fill="var(--muted)" font-size="9" text-anchor="end">5.3 GB</text><line x1="52" y1="28.0" x2="588" y2="28.0" stroke="var(--grid-subtle)" stroke-width="0.5"/><text x="46" y="31.0" fill="var(--muted)" font-size="9" text-anchor="end">7.0 GB</text><text x="180.9" y="158" fill="var(--muted)" font-size="9" text-anchor="middle">build</text><line x1="309.8" y1="28" x2="309.8" y2="136.0" stroke="var(--muted)" stroke-width="0.5" stroke-dasharray="4,3" opacity="0.6"/><text x="350.5" y="158" fill="var(--muted)" font-size="9" text-anchor="middle">lint</text><line x1="391.2" y1="28" x2="391.2" y2="136.0" stroke="var(--muted)" stroke-width="0.5" stroke-dasharray="4,3" opacity="0.6"/><text x="489.6" y="158" fill="var(--muted)" font-size="9" text-anchor="middle">test</text><text x="52" y="168" fill="var(--muted)" font-size="8" text-anchor="start">22:00</text><text x="588" y="168" fill="var(--muted)" font-size="8" text-anchor="end">22:10</text><text x="309.8" y="168" fill="var(--muted)" font-size="8" text-anchor="middle">22:05</text><text x="391.2" y="168" fill="var(--muted)" font-size="8" text-anchor="middle">22:06</text><path d="M52.0,113.4 C55.4,113.4 55.4,109.5 58.8,109.5 C62.2,109.5 62.2,105.9 65.6,105.9 C69.0,105.9 69.0,103.0 72.4,103.0 C75.7,103.0 75.7,100.8 79.1,100.8 C82.5,100.8 82.5,99.6 85.9,99.6 C89.3,99.6 89.3,99.3 92.7,99.3 C96.1,99.3 96.1,99.8 99.5,99.8 C102.9,99.8 102.9,100.9 106.3,100.9 C109.7,100.9 109.7,102.3 113.1,102.3 C116.5,102.3 116.5,103.6 119.8,103.6 C123.2,103.6 123.2,104.5 126.6,104.5 C130.0,104.5 130.0,104.7 133.4,104.7 C136.8,104.7 136.8,104.2 140.2,104.2 C143.6,104.2 143.6,102.6 147.0,102.6 C150.4,102.6 150.4,100.2 153.8,100.2 C157.2,100.2 157.2,97.0 160.6,97.0 C163.9,97.0 163.9,93.3 167.3,93.3 C170.7,93.3 170.7,89.3 174.1,89.3 C177.5,89.3 177.5,85.5 180.9,85.5 C184.3,85.5 184.3,82.1 187.7,82.1 C191.1,82.1 191.1,79.4 194.5,79.4 C197.9,79.4 197.9,77.6 201.3,77.6 C204.7,77.6 204.7,76.7 208.1,76.7 C211.4,76.7 211.4,76.7 214.8,76.7 C218.2,76.7 218.2,77.4 221.6,77.4 C225.0,77.4 225.0,78.6 228.4,78.6 C231.8,78.6 231.8,80.0 235.2,80.0 C238.6,80.0 238.6,81.2 242.0,81.2 C245.4,81.2 245.4,82.0 248.8,82.0 C252.2,82.0 252.2,81.9 255.5,81.9 C258.9,81.9 258.9,81.0 262.3,81.0 C265.7,81.0 265.7,79.2 269.1,79.2 C272.5,79.2 272.5,76.4 275.9,76.4 C279.3,76.4 279.3,73.0 282.7,73.0 C286.1,73.0 286.1,69.2 289.5,69.2 C292.9,69.2 292.9,65.3 296.3,65.3 C299.6,65.3 299.6,61.5 303.0,61.5 C306.4,61.5 306.4,113.4 309.8,113.4 C313.2,113.4 313.2,102.7 316.6,102.7 C320.0,102.7 320.0,99.4 323.4,99.4 C326.8,99.4 326.8,102.6 330.2,102.6 C333.6,102.6 333.6,104.7 337.0,104.7 C340.4,104.7 340.4,98.9 343.7,98.9 C347.1,98.9 347.1,87.4 350.5,87.4 C353.9,87.4 353.9,78.2 357.3,78.2 C360.7,78.2 360.7,77.1 364.1,77.1 C367.5,77.1 367.5,81.0 370.9,81.0 C374.3,81.0 374.3,81.2 377.7,81.2 C381.1,81.2 381.1,73.3 384.5,73.3 C387.8,73.3 387.8,61.5 391.2,61.5 C394.6,61.5 394.6,113.4 398.0,113.4 C401.4,113.4 401.4,108.3 404.8,108.3 C408.2,108.3 408.2,103.9 411.6,103.9 C415.0,103.9 415.0,100.9 418.4,100.9 C421.8,100.9 421.8,99.4 425.2,99.4 C428.6,99.4 428.6,99.5 431.9,99.5 C435.3,99.5 435.3,100.8 438.7,100.8 C442.1,100.8 442.1,102.6 445.5,102.6 C448.9,102.6 448.9,104.2 452.3,104.2 C455.7,104.2 455.7,104.8 459.1,104.8 C462.5,104.8 462.5,103.9 465.9,103.9 C469.3,103.9 469.3,101.4 472.7,101.4 C476.1,101.4 476.1,97.5 479.4,97.5 C482.8,97.5 482.8,92.6 486.2,92.6 C489.6,92.6 489.6,87.4 493.0,87.4 C496.4,87.4 496.4,82.7 499.8,82.7 C503.2,82.7 503.2,79.1 506.6,79.1 C510.0,79.1 510.0,77.0 513.4,77.0 C516.8,77.0 516.8,76.6 520.2,76.6 C523.5,76.6 523.5,77.6 526.9,77.6 C530.3,77.6 530.3,79.2 533.7,79.2 C537.1,79.2 537.1,81.0 540.5,81.0 C543.9,81.0 543.9,82.0 547.3,82.0 C550.7,82.0 550.7,81.7 554.1,81.7 C557.5,81.7 557.5,79.8 560.9,79.8 C564.3,79.8 564.3,76.3 567.6,76.3 C571.0,76.3 571.0,71.7 574.4,71.7 C577.8,71.7 577.8,66.5 581.2,66.5 C584.6,66.5 584.6,61.5 588.0,61.5 L588.0,136.0 L52.0,136.0 Z" fill="url(#grad_memstroke)"/><path d="M52.0,113.4 C55.4,113.4 55.4,109.5 58.8,109.5 C62.2,109.5 62.2,105.9 65.6,105.9 C69.0,105.9 69.0,103.0 72.4,103.0 C75.7,103.0 75.7,100.8 79.1,100.8 C82.5,100.8 82.5,99.6 85.9,99.6 C89.3,99.6 89.3,99.3 92.7,99.3 C96.1,99.3 96.1,99.8 99.5,99.8 C102.9,99.8 102.9,100.9 106.3,100.9 C109.7,100.9 109.7,102.3 113.1,102.3 C116.5,102.3 116.5,103.6 119.8,103.6 C123.2,103.6 123.2,104.5 126.6,104.5 C130.0,104.5 130.0,104.7 133.4,104.7 C136.8,104.7 136.8,104.2 140.2,104.2 C143.6,104.2 143.6,102.6 147.0,102.6 C150.4,102.6 150.4,100.2 153.8,100.2 C157.2,100.2 157.2,97.0 160.6,97.0 C163.9,97.0 163.9,93.3 167.3,93.3 C170.7,93.3 170.7,89.3 174.1,89.3 C177.5,89.3 177.5,85.5 180.9,85.5 C184.3,85.5 184.3,82.1 187.7,82.1 C191.1,82.1 191.1,79.4 194.5,79.4 C197.9,79.4 197.9,77.6 201.3,77.6 C204.7,77.6 204.7,76.7 208.1,76.7 C211.4,76.7 211.4,76.7 214.8,76.7 C218.2,76.7 218.2,77.4 221.6,77.4 C225.0,77.4 225.0,78.6 228.4,78.6 C231.8,78.6 231.8,80.0 235.2,80.0 C238.6,80.0 238.6,81.2 242.0,81.2 C245.4,81.2 245.4,82.0 248.8,82.0 C252.2,82.0 252.2,81.9 255.5,81.9 C258.9,81.9 258.9,81.0 262.3,81.0 C265.7,81.0 265.7,79.2 269.1,79.2 C272.5,79.2 272.5,76.4 275.9,76.4 C279.3,76.4 279.3,73.0 282.7,73.0 C286.1,73.0 286.1,69.2 289.5,69.2 C292.9,69.2 292.9,65.3 296.3,65.3 C299.6,65.3 299.6,61.5 303.0,61.5 C306.4,61.5 306.4,113.4 309.8,113.4 C313.2,113.4 313.2,102.7 316.6,102.7 C320.0,102.7 320.0,99.4 323.4,99.4 C326.8,99.4 326.8,102.6 330.2,102.6 C333.6,102.6 333.6,104.7 337.0,104.7 C340.4,104.7 340.4,98.9 343.7,98.9 C347.1,98.9 347.1,87.4 350.5,87.4 C353.9,87.4 353.9,78.2 357.3,78.2 C360.7,78.2 360.7,77.1 364.1,77.1 C367.5,77.1 367.5,81.0 370.9,81.0 C374.3,81.0 374.3,81.2 377.7,81.2 C381.1,81.2 381.1,73.3 384.5,73.3 C387.8,73.3 387.8,61.5 391.2,61.5 C394.6,61.5 394.6,113.4 398.0,113.4 C401.4,113.4 401.4,108.3 404.8,108.3 C408.2,108.3 408.2,103.9 411.6,103.9 C415.0,103.9 415.0,100.9 418.4,100.9 C421.8,100.9 421.8,99.4 425.2,99.4 C428.6,99.4 428.6,99.5 431.9,99.5 C435.3,99.5 435.3,100.8 438.7,100.8 C442.1,100.8 442.1,102.6 445.5,102.6 C448.9,102.6 448.9,104.2 452.3,104.2 C455.7,104.2 455.7,104.8 459.1,104.8 C462.5,104.8 462.5,103.9 465.9,103.9 C469.3,103.9 469.3,101.4 472.7,101.4 C476.1,101.4 476.1,97.5 479.4,97.5 C482.8,97.5 482.8,92.6 486.2,92.6 C489.6,92.6 489.6,87.4 493.0,87.4 C496.4,87.4 496.4,82.7 499.8,82.7 C503.2,82.7 503.2,79.1 506.6,79.1 C510.0,79.1 510.0,77.0 513.4,77.0 C516.8,77.0 516.8,76.6 520.2,76.6 C523.5,76.6 523.5,77.6 526.9,77.6 C530.3,77.6 530.3,79.2 533.7,79.2 C537.1,79.2 537.1,81.0 540.5,81.0 C543.9,81.0 543.9,82.0 547.3,82.0 C550.7,82.0 550.7,81.7 554.1,81.7 C557.5,81.7 557.5,79.8 560.9,79.8 C564.3,79.8 564.3,76.3 567.6,76.3 C571.0,76.3 571.0,71.7 574.4,71.7 C577.8,71.7 577.8,66.5 581.2,66.5 C584.6,66.5 584.6,61.5 588.0,61.5" fill="none" stroke="var(--mem-stroke)" stroke-width="1.5" stroke-linecap="round"/><circle cx="588.0" cy="61.5" r="4" fill="var(--mem-stroke)" opacity="0.3"/><circle cx="588.0" cy="61.5" r="2.5" fill="var(--mem-stroke)"/><text x="52" y="16" fill="var(--muted)" font-size="10">Memory Usage</text><text x="588" y="16" fill="var(--mem-stroke)" font-size="10" text-anchor="end">4.8 GB</text></svg>