<svg xmlns="http://www.w3.org/2000/svg" viewBox="0 0 600 172" width="600" height="172"><defs><style>
      :root {
        --bg: #0d1117; --bg-card: #161b22; --fg: #e6edf3;
        --grid: #30363d; --grid-subtle: #21262d; --muted: #8b949e;
        --cpu-stroke: #58a6ff; --cpu-fill: rgba(88,166,255,0.25);
        --mem-stroke: #bc8cff; --mem-fill: rgba(188,140,255,0.25);
        --green: #3fb950; --yellow: #d29922; --red: #f85149;
        --bar-fill: #58a6ff; --bar-bg: #21262d;
        --accent-blue: #58a6ff; --accent-purple: #bc8cff;
        --accent-cyan: #39d2c0; --accent-green: #3fb950;
        --group-band: rgba(255,255,255,0.02);
      }
      @media (prefers-color-scheme: light) {
        :root {
          --bg: #ffffff; --bg-card: #f6f8fa; --fg: #24292f;
          --grid: #d0d7de; --grid-subtle: #eaeef2; --muted: #656d76;
          --cpu-stroke: #0969da; --cpu-fill: rgba(9,105,218,0.25);
          --mem-stroke: #8250df; --mem-fill: rgba(130,80,223,0.25);
          --green: #1a7f37; --yellow: #9a6700; --red: #cf222e;
          --bar-fill: #0969da; --bar-bg: #eaeef2;
          --accent-blue: #0969da; --accent-purple: #8250df;
          --accent-cyan: #0598bc; --accent-green: #1a7f37;
          --group-band: rgba(0,0,0,0.03);
        }
      }
      text { font-family: ui-monospace, SFMono-Regular, "SF Mono", Menlo, Consolas, "Liberation Mono", monospace; }
    </style><linearGradient id="grad_cpustroke" x1="0" y1="0" x2="0" y2="1"><stop offset="0%" stop-color="var(--cpu-stroke)" stop-opacity="0.3"/><stop offset="100%" stop-color="var(--cpu-stroke)" stop-opacity="0.02"/></linearGradient></defs><rect width="600" height="172" rx="6" fill="var(--bg-card)"/><line x1="52" y1="136.0" x2="588" y2="136.0" stroke="var(--grid-subtle)" stroke-width="0.5"/><text x="46" y="139.0" fill="var(--muted)" font-size="9" text-anchor="end">0%</text><line x1="52" y1="109.0" x2="588" y2="109.0" stroke="var(--grid-subtle)" stroke-width="0.5"/><text x="46" y="112.0" fill="var(--muted)" font-size="9" text-anchor="end">25%</text><line x1="52" y1="82.0" x2="588" y2="82.0" stroke="var(--grid-subtle)" stroke-width="0.5"/><text x="46" y="85.0" fill="var(--muted)" font-size="9" text-anchor="end">50%</text><line x1="52" y1="55.0" x2="588" y2="55.0" stroke="var(--grid-subtle)" stroke-width="0.5"/><text x="46" y="58.0" fill="var(--muted)" font-size="9" text-anchor="end">75%</text><line x1="52" y1="28.0" x2="588" y2="28.0" stroke="var(--grid-subtle)" stroke-width="0.5"/><text x="46" y="31.0" fill="var(--muted)" font-size="9" text-anchor="end">100%</text><text x="180.9" y="158" fill="var(--muted)" font-size="9" text-anchor="middle">build</text><line x1="309.8" y1="28" x2="309.8" y2="136.0" stroke="var(--muted)" stroke-width="0.5" stroke-dasharray="4,3" opacity="0.6"/><text x="350.5" y="158" fill="var(--muted)" font-size="9" text-anchor="middle">lint</text><line x1="391.2" y1="28" x2="391.2" y2="136.0" stroke="var(--muted)" stroke-width="0.5" stroke-dasharray="4,3" opacity="0.6"/><text x="489.6" y="158" fill="var(--muted)" font-size="9" text-anchor="middle">test</text><text x="52" y="168" fill="var(--muted)" font-size="8" text-anchor="start">22:00</text><text x="588" y="168" fill="var(--muted)" font-size="8" text-anchor="end">22:10</text><text x="309.8" y="168" fill="var(--muted)" font-size="8" text-anchor="middle">22:05</text><text x="391.2" y="168" fill="var(--muted)" font-size="8" text-anchor="middle">22:06</text><path d="M52.0,114.4 C55.4,114.4 55.4,105.2 58.8,105.2 C62.2,105.2 62.2,96.0 65.6,96.0 C69.0,96.0 69.0,87.8 72.4,87.8 C75.7,87.8 75.7,81.3 79.1,81.3 C82.5,81.3 82.5,77.3 85.9,77.3 C89.3,77.3 89.3,75.5 92.7,75.5 C96.1,75.5 96.1,75.5 99.5,75.5 C102.9,75.5 102.9,77.9 106.3,77.9 C109.7,77.9 109.7,82.5 113.1,82.5 C116.5,82.5 116.5,88.5 119.8,88.5 C123.2,88.5 123.2,95.5 126.6,95.5 C130.0,95.5 130.0,102.4 133.4,102.4 C136.8,102.4 136.8,110.1 140.2,110.1 C143.6,110.1 143.6,116.2 147.0,116.2 C150.4,116.2 150.4,122.0 153.8,122.0 C157.2,122.0 157.2,125.4 160.6,125.4 C163.9,125.4 163.9,126.3 167.3,126.3 C170.7,126.3 170.7,125.8 174.1,125.8 C177.5,125.8 177.5,122.9 180.9,122.9 C184.3,122.9 184.3,117.5 187.7,117.5 C191.1,117.5 191.1,110.6 194.5,110.6 C197.9,110.6 197.9,101.6 201.3,101.6 C204.7,101.6 204.7,92.3 208.1,92.3 C211.4,92.3 211.4,83.1 214.8,83.1 C218.2,83.1 218.2,72.8 221.6,72.8 C225.0,72.8 225.0,64.7 228.4,64.7 C231.8,64.7 231.8,57.2 235.2,57.2 C238.6,57.2 238.6,52.2 242.0,52.2 C245.4,52.2 245.4,48.6 248.8,48.6 C252.2,48.6 252.2,47.5 255.5,47.5 C258.9,47.5 258.9,48.7 262.3,48.7 C265.7,48.7 265.7,52.5 269.1,52.5 C272.5,52.5 272.5,57.6 275.9,57.6 C279.3,57.6 279.3,64.5 282.7,64.5 C286.1,64.5 286.1,71.4 289.5,71.4 C292.9,71.4 292.9,78.3 296.3,78.3 C299.6,78.3 299.6,86.3 303.0,86.3 C306.4,86.3 306.4,114.4 309.8,114.4 C313.2,114.4 313.2,87.0 316.6,87.0 C320.0,87.0 320.0,75.3 323.4,75.3 C326.8,75.3 326.8,83.6 330.2,83.6 C333.6,83.6 333.6,104.7 337.0,104.7 C340.4,104.7 340.4,123.0 343.7,123.0 C347.1,123.0 347.1,124.7 350.5,124.7 C353.9,124.7 353.9,105.4 357.3,105.4 C360.7,105.4 360.7,76.2 364.1,76.2 C367.5,76.2 367.5,53.4 370.9,53.4 C374.3,53.4 374.3,48.5 377.7,48.5 C381.1,48.5 381.1,63.9 384.5,63.9 C387.8,63.9 387.8,86.3 391.2,86.3 C394.6,86.3 394.6,114.4 398.0,114.4 C401.4,114.4 401.4,102.2 404.8,102.2 C408.2,102.2 408.2,90.7 411.6,90.7 C415.0,90.7 415.0,81.6 418.4,81.6 C421.8,81.6 421.8,76.3 425.2,76.3 C428.6,76.3 428.6,74.6 431.9,74.6 C435.3,74.6 435.3,77.6 438.7,77.6 C442.1,77.6 442.1,83.6 445.5,83.6 C448.9,83.6 448.9,92.5 452.3,92.5 C455.7,92.5 455.7,101.6 459.1,101.6 C462.5,101.6 462.5,111.6 465.9,111.6 C469.3,111.6 469.3,119.9 472.7,119.9 C476.1,119.9 476.1,124.9 479.4,124.9 C482.8,124.9 482.8,126.3 486.2,126.3 C489.6,126.3 489.6,124.7 493.0,124.7 C496.4,124.7 496.4,118.8 499.8,118.8 C503.2,118.8 503.2,109.5 506.6,109.5 C510.0,109.5 510.0,97.3 513.4,97.3 C516.8,97.3 516.8,85.1 520.2,85.1 C523.5,85.1 523.5,71.8 526.9,71.8 C530.3,71.8 530.3,61.2 533.7,61.2 C537.1,61.2 537.1,53.4 540.5,53.4 C543.9,53.4 543.9,48.5 547.3,48.5 C550.7,48.5 550.7,48.4 554.1,48.4 C557.5,48.4 557.5,51.1 560.9,51.1 C564.3,51.1 564.3,57.8 567.6,57.8 C571.0,57.8 571.0,67.0 574.4,67.0 C577.8,67.0 577.8,76.1 581.2,76.1 C584.6,76.1 584.6,86.3 588.0,86.3 L588.0,136.0 L52.0,136.0 Z" fill="url(#grad_cpustroke)"/><path d="M52.0,114.4 C55.4,114.4 55.4,105.2 58.8,105.2 C62.2,105.2 62.2,96.0 65.6,96.0 C69.0,96.0 69.0,87.8 72.4,87.8 C75.7,87.8 75.7,81.3 79.1,81.3 C82.5,81.3 82.5,77.3 85.9,77.3 C89.3,77.3 89.3,75.5 92.7,75.5 C96.1,75.5 96.1,75.5 99.5,75.5 C102.9,75.5 102.9,77.9 106.3,77.9 C109.7,77.9 109.7,82.5 113.1,82.5 C116.5,82.5 116.5,88.5 119.8,88.5 C123.2,88.5 123.2,95.5 126.6,95.5 C130.0,95.5 130.0,102.4 133.4,102.4 C136.8,102.4 136.8,110.1 140.2,110.1 C143.6,110.1 143.6,116.2 147.0,116.2 C150.4,116.2 150.4,122.0 153.8,122.0 C157.2,122.0 157.2,125.4 160.6,125.4 C163.9,125.4 163.9,126.3 167.3,126.3 C170.7,126.3 170.7,125.8 174.1,125.8 C177.5,125.8 177.5,122.9 180.9,122.9 C184.3,122.9 184.3,117.5 187.7,117.5 C191.1,117.5 191.1,110.6 194.5,110.6 C197.9,110.6 197.9,101.6 201.3,101.6 C204.7,101.6 204.7,92.3 208.1,92.3 C211.4,92.3 211.4,83.1 214.8,83.1 C218.2,83.1 218.2,72.8 221.6,72.8 C225.0,72.8 225.0,64.7 228.4,64.7 C231.8,64.7 231.8,57.2 235.2,57.2 C238.6,57.2 238.6,52.2 242.0,52.2 C245.4,52.2 245.4,48.6 248.8,48.6 C252.2,48.6 252.2,47.5 255.5,47.5 C258.9,47.5 258.9,48.7 262.3,48.7 C265.7,48.7 265.7,52.5 269.1,52.5 C272.5,52.5 272.5,57.6 275.9,57.6 C279.3,57.6 279.3,64.5 282.7,64.5 C286.1,64.5 286.1,71.4 289.5,71.4 C292.9,71.4 292.9,78.3 296.3,78.3 C299.6,78.3 299.6,86.3 303.0,86.3 C306.4,86.3 306.4,114.4 309.8,114.4 C313.2,114.4 313.2,87.0 316.6,87.0 C320.0,87.0 320.0,75.3 323.4,75.3 C326.8,75.3 326.8,83.6 330.2,83.6 C333.6,83.6 333.6,104.7 337.0,104.7 C340.4,104.7 340.4,123.0 343.7,123.0 C347.1,123.0 347.1,124.7 350.5,124.7 C353.9,124.7 353.9,105.4 357.3,105.4 C360.7,105.4 360.7,76.2 364.1,76.2 C367.5,76.2 367.5,53.4 370.9,53.4 C374.3,53.4 374.3,48.5 377.7,48.5 C381.1,48.5 381.1,63.9 384.5,63.9 C387.8,63.9 387.8,86.3 391.2,86.3 C394.6,86.3 394.6,114.4 398.0,114.4 C401.4,114.4 401.4,102.2 404.8,102.2 C408.2,102.2 408.2,90.7 411.6,90.7 C415.0,90.7 415.0,81.6 418.4,81.6 C421.8,81.6 421.8,76.3 425.2,76.3 C428.6,76.3 428.6,74.6 431.9,74.6 C435.3,74.6 435.3,77.6 438.7,77.6 C442.1,77.6 442.1,83.6 445.5,83.6 C448.9,83.6 448.9,92.5 452.3,92.5 C455.7,92.5 455.7,101.6 459.1,101.6 C462.5,101.6 462.5,111.6 465.9,111.6 C469.3,111.6 469.3,119.9 472.7,119.9 C476.1,119.9 476.1,124.9 479.4,124.9 C482.8,124.9 482.8,126.3 486.2,126.3 C489.6,126.3 489.6,124.7 493.0,124.7 C496.4,124.7 496.4,118.8 499.8,118.8 C503.2,118.8 503.2,109.5 506.6,109.5 C510.0,109.5 510.0,97.3 513.4,97.3 C516.8,97.3 516.8,85.1 520.2,85.1 C523.5,85.1 523.5,71.8 526.9,71.8 C530.3,71.8 530.3,61.2 533.7,61.2 C537.1,61.2 537.1,53.4 540.5,53.4 C543.9,53.4 543.9,48.5 547.3,48.5 C550.7,48.5 550.7,48.4 554.1,48.4 C557.5,48.4 557.5,51.1 560.9,51.1 C564.3,51.1 564.3,57.8 567.6,57.8 C571.0,57.8 571.0,67.0 574.4,67.0 C577.8,67.0 577.8,76.1 581.2,76.1 C584.6,76.1 584.6,86.3 588.0,86.3" fill="none" stroke="var(--cpu-stroke)" stroke-width="1.5" stroke-linecap="round"/><circle cx="588.0" cy="86.3" r="4" fill="var(--cpu-stroke)" opacity="0.3"/><circle cx="588.0" cy="86.3" r="2.5" fill="var(--cpu-stroke)"/><text x="52" y="16" fill="var(--muted)" font-size="10">CPU Usage</text><text x="588" y="16" fill="var(--cpu-stroke)" font-size="10" text-anchor="end">46%</text></svg>