<svg xmlns="http://www.w3.org/2000/svg" viewBox="0 0 600 304" width="600" height="304"><defs><style>
      :root {
        --bg: #0d1117; --bg-card: #161b22; --fg: #e6edf3;
        --grid: #30363d; --grid-subtle: #21262d; --muted: #8b949e;
        --cpu-stroke: #58a6ff; --cpu-fill: rgba(88,166,255,0.25);
        --mem-stroke: #bc8cff; --mem-fill: rgba(188,140,255,0.25);
        --green: #3fb950; --yellow: #d29922; --red: #f85149;
        --bar-fill: #58a6ff; --bar-bg: #21262d;
        --accent-blue: #58a6ff; --accent-purple: #bc8cff;
        --accent-cyan: #39d2c0; --accent-green: #3fb950;
        --group-band: rgba(255,255,255,0.02);
      }
      @media (prefers-color-scheme: light) {
        :root {
          --bg: #ffffff; --bg-card: #f6f8fa; --fg: #24292f;
          --grid: #d0d7de; --grid-subtle: #eaeef2; --muted: #656d76;
          --cpu-stroke: #0969da; --cpu-fill: rgba(9,105,218,0.25);
          --mem-stroke: #8250df; --mem-fill: rgba(130,80,223,0.25);
          --green: #1a7f37; --yellow: #9a6700; --red: #cf222e;
          --bar-fill: #0969da; --bar-bg: #eaeef2;
          --accent-blue: #0969da; --accent-purple: #8250df;
          --accent-cyan: #0598bc; --accent-green: #1a7f37;
          --group-band: rgba(0,0,0,0.03);
        }
      }
      text { font-family: ui-monospace, SFMono-Regular, "SF Mono", Menlo, Consolas, "Liberation Mono", monospace; }
    </style></defs><rect width="600" height="304" rx="6" fill="var(--bg-card)"/><text x="12" y="18" fill="var(--muted)" font-size="10">Execution Timeline</text><rect x="8" y="27.0" width="3" height="96.0" rx="1.5" fill="var(--accent-blue)" opacity="0.6"/><text x="16" y="75.0" fill="var(--accent-blue)" font-size="9" font-weight="600" dominant-baseline="middle">build</text><rect x="0" y="123.0" width="600" height="72.0" fill="var(--group-band)"/><rect x="8" y="123.0" width="3" height="72.0" rx="1.5" fill="var(--accent-purple)" opacity="0.6"/><text x="16" y="159.0" fill="var(--accent-purple)" font-size="9" font-weight="600" dominant-baseline="middle">lint</text><line x1="8" y1="120.0" x2="592" y2="120.0" stroke="var(--grid)" stroke-width="0.5" opacity="0.4"/><rect x="8" y="201.0" width="3" height="96.0" rx="1.5" fill="var(--accent-cyan)" opacity="0.6"/><text x="16" y="249.0" fill="var(--accent-cyan)" font-size="9" font-weight="600" dominant-baseline="middle">test</text><line x1="8" y1="198.0" x2="592" y2="198.0" stroke="var(--grid)" stroke-width="0.5" opacity="0.4"/><text x="64" y="40.0" fill="var(--fg)" font-size="9.5" dominant-baseline="middle">Checkout</text><rect x="174" y="31.0" width="363" height="16" rx="2" fill="var(--grid-subtle)" opacity="0.5"/><rect x="174.0" y="31.0" width="4.8" height="16" rx="2" fill="var(--accent-blue)" opacity="0.85"/><text x="588" y="40.0" fill="var(--muted)" font-size="9.5" text-anchor="end" dominant-baseline="middle">8s</text><text x="64" y="64.0" fill="var(--fg)" font-size="9.5" dominant-baseline="middle">Setup Node.js</text><rect x="174" y="55.0" width="363" height="16" rx="2" fill="var(--grid-subtle)" opacity="0.5"/><rect x="178.8" y="55.0" width="9.1" height="16" rx="2" fill="var(--accent-blue)" opacity="0.85"/><text x="588" y="64.0" fill="var(--muted)" font-size="9.5" text-anchor="end" dominant-baseline="middle">15s</text><text x="64" y="88.0" fill="var(--fg)" font-size="9.5" dominant-baseline="middle">Install deps</text><rect x="174" y="79.0" width="363" height="16" rx="2" fill="var(--grid-subtle)" opacity="0.5"/><rect x="187.9" y="79.0" width="31.5" height="16" rx="2" fill="var(--accent-blue)" opacity="0.85"/><text x="588" y="88.0" fill="var(--muted)" font-size="9.5" text-anchor="end" dominant-baseline="middle">52s</text><text x="64" y="112.0" fill="var(--fg)" font-size="9.5" dominant-baseline="middle">Build</text><rect x="174" y="103.0" width="363" height="16" rx="2" fill="var(--grid-subtle)" opacity="0.5"/><rect x="219.4" y="103.0" width="124.0" height="16" rx="2" fill="var(--accent-blue)" opacity="0.85"/><text x="588" y="112.0" fill="var(--muted)" font-size="9.5" text-anchor="end" dominant-baseline="middle">3m 25s</text><text x="64" y="136.0" fill="var(--fg)" font-size="9.5" dominant-baseline="middle">Checkout</text><rect x="174" y="127.0" width="363" height="16" rx="2" fill="var(--grid-subtle)" opacity="0.5"/><rect x="355.5" y="127.0" width="3.6" height="16" rx="2" fill="var(--accent-purple)" opacity="0.85"/><text x="588" y="136.0" fill="var(--muted)" font-size="9.5" text-anchor="end" dominant-baseline="middle">6s</text><text x="64" y="160.0" fill="var(--fg)" font-size="9.5" dominant-baseline="middle">Setup Node.js</text><rect x="174" y="151.0" width="363" height="16" rx="2" fill="var(--grid-subtle)" opacity="0.5"/><rect x="359.1" y="151.0" width="7.3" height="16" rx="2" fill="var(--accent-purple)" opacity="0.85"/><text x="588" y="160.0" fill="var(--muted)" font-size="9.5" text-anchor="end" dominant-baseline="middle">12s</text><text x="64" y="184.0" fill="var(--fg)" font-size="9.5" dominant-baseline="middle">Lint</text><rect x="174" y="175.0" width="363" height="16" rx="2" fill="var(--grid-subtle)" opacity="0.5"/><rect x="366.4" y="175.0" width="46.6" height="16" rx="2" fill="var(--accent-purple)" opacity="0.85"/><text x="588" y="184.0" fill="var(--muted)" font-size="9.5" text-anchor="end" dominant-baseline="middle">1m 17s</text><text x="64" y="214.0" fill="var(--fg)" font-size="9.5" dominant-baseline="middle">Checkout</text><rect x="174" y="205.0" width="363" height="16" rx="2" fill="var(--grid-subtle)" opacity="0.5"/><rect x="410.0" y="205.0" width="4.2" height="16" rx="2" fill="var(--accent-cyan)" opacity="0.85"/><text x="588" y="214.0" fill="var(--muted)" font-size="9.5" text-anchor="end" dominant-baseline="middle">7s</text><text x="64" y="238.0" fill="var(--fg)" font-size="9.5" dominant-baseline="middle">Setup Node.js</text><rect x="174" y="229.0" width="363" height="16" rx="2" fill="var(--grid-subtle)" opacity="0.5"/><rect x="414.2" y="229.0" width="8.5" height="16" rx="2" fill="var(--accent-cyan)" opacity="0.85"/><text x="588" y="238.0" fill="var(--muted)" font-size="9.5" text-anchor="end" dominant-baseline="middle">14s</text><text x="64" y="262.0" fill="var(--fg)" font-size="9.5" dominant-baseline="middle">Install deps</text><rect x="174" y="253.0" width="363" height="16" rx="2" fill="var(--grid-subtle)" opacity="0.5"/><rect x="422.7" y="253.0" width="29.0" height="16" rx="2" fill="var(--accent-cyan)" opacity="0.85"/><text x="588" y="262.0" fill="var(--muted)" font-size="9.5" text-anchor="end" dominant-baseline="middle">48s</text><text x="64" y="286.0" fill="var(--fg)" font-size="9.5" dominant-baseline="middle">Run tests</text><rect x="174" y="277.0" width="363" height="16" rx="2" fill="var(--grid-subtle)" opacity="0.5"/><rect x="451.7" y="277.0" width="85.3" height="16" rx="2" fill="var(--accent-cyan)" opacity="0.85"/><text x="588" y="286.0" fill="var(--muted)" font-size="9.5" text-anchor="end" dominant-baseline="middle">2m 21s</text></svg>